<?xml version="1.0" encoding="UTF-8"?><svg id="Layer_2" xmlns="http://www.w3.org/2000/svg" xmlns:xlink="http://www.w3.org/1999/xlink" viewBox="0 0 186.22 120.16"><defs><style>.cls-1{fill:url(#linear-gradient-2);}.cls-2{fill:#9eff8d;opacity:.5;}.cls-3{fill:#008afb;}.cls-4{fill:url(#linear-gradient-3);}.cls-5{fill:url(#linear-gradient);}.cls-6{fill:#0e1b4f;}</style><linearGradient id="linear-gradient" x1="80.65" y1="59.98" x2="186.14" y2="59.98" gradientTransform="matrix(1, 0, 0, 1, 0, 0)" gradientUnits="userSpaceOnUse"><stop offset="0" stop-color="#00539f"/><stop offset="1" stop-color="#00539f"/></linearGradient><linearGradient id="linear-gradient-2" x1="95.21" y1="74.19" x2="186.22" y2="74.19" gradientTransform="matrix(1, 0, 0, 1, 0, 0)" gradientUnits="userSpaceOnUse"><stop offset="0" stop-color="#00539f"/><stop offset="1" stop-color="#6adfff"/></linearGradient><linearGradient id="linear-gradient-3" x1="89.42" y1="19.54" x2="186.14" y2="19.54" gradientTransform="matrix(1, 0, 0, 1, 0, 0)" gradientUnits="userSpaceOnUse"><stop offset="0" stop-color="#00539f"/><stop offset="1" stop-color="#0095dd"/></linearGradient></defs><g id="Layer_1-2"><rect class="cls-6" x="5.28" y="101.36" width="146.88" height="18.66" rx="9.33" ry="9.33"/><path class="cls-3" d="M72.13,61.17c-.03,.39-.09,.78-.16,1.16-.34,1.72-1.05,3.4-2.14,4.87-.24,.32-.51,.65-.78,.95-.14,.15-.28,.3-.44,.46L20.78,116.44c-4.75,4.75-12.47,4.75-17.22,0-4.75-4.76-4.75-12.47,0-17.23L42.78,59.99,3.56,20.78C-1.19,16.03-1.19,8.32,3.56,3.56s12.47-4.75,17.22,0l47.83,47.83c.15,.15,.29,.3,.44,.46,.27,.3,.54,.62,.78,.95,1.08,1.48,1.79,3.15,2.14,4.87,.07,.39,.13,.77,.16,1.17,.07,.77,.07,1.55,0,2.33Z"/><path class="cls-5" d="M186.14,26.62c0,4.58-2.19,8.64-5.57,11.21-.21,.16-.44,.32-.66,.47-.33,.22-.67,.43-1.02,.61-2.02,1.13-4.34,1.77-6.81,1.77-.74,0-1.47-.06-2.18-.17-2.63-.4-5.01-1.54-6.94-3.2-.31-.3-.64-.61-.97-.91-4.19-3.76-9.37-6.43-15.11-7.57-2.01-.4-4.1-.61-6.23-.61-.2,0-.4,0-.59,0-.14,0-.27,0-.41,0-24.55,0-44.44,20.58-44.44,45.97,0,23.41,16.9,42.73,38.78,45.6-30-3.31-53.34-28.74-53.34-59.63,0-11.44,3.2-22.13,8.75-31.22,0-.01,.01-.01,.02-.02C99.95,11.67,118.96,.16,140.65,.16c15.62,0,29.85,5.97,40.53,15.75,.29,.27,.58,.54,.87,.81,.05,.04,.1,.09,.14,.14,2.45,2.52,3.95,5.97,3.95,9.76Z"/><path class="cls-1" d="M186.22,93.69c0,3.4-1.2,6.52-3.21,8.96-.02,.02-.03,.04-.05,.06-.81,.81-1.65,1.59-2.51,2.35-10.59,9.39-24.53,15.1-39.8,15.1-.19,0-.38,0-.57,0-1.88-.01-3.73-.11-5.57-.3-.17,0-.35-.04-.52-.06-21.88-2.87-38.78-22.19-38.78-45.6,0-25.39,19.89-45.97,44.44-45.97,.14,0,.27,0,.41,0-17.37,.31-31.35,14.49-31.35,31.93s14.3,31.94,31.94,31.94c8.22,0,15.71-3.11,21.37-8.21,.33-.3,.65-.6,.97-.92,2.46-2.1,5.65-3.37,9.14-3.37,2.66,0,5.14,.74,7.26,2.01,.61,.5,1.25,.96,1.91,1.38,.59,.51,1.14,1.06,1.63,1.66,2.06,2.44,3.29,5.6,3.29,9.04Z"/><path class="cls-2" d="M140.08,120.15c-.14,0-.29,0-.43,0-1.74,0-3.45-.1-5.14-.31,1.84,.19,3.69,.29,5.57,.3Z"/><path class="cls-4" d="M186.14,26.62c0,4.58-2.19,8.64-5.57,11.21-.21,.16-.44,.32-.66,.47-.33,.22-.67,.43-1.02,.61-.27-.08-.53-.16-.78-.24-2.89-.91-5.48-2.58-7.46-4.86-10.43-12.04-25.83-19.65-43-19.65-14.72,0-28.13,5.59-38.23,14.76C99.95,11.67,118.96,.16,140.65,.16c15.62,0,29.85,5.97,40.53,15.75,.29,.27,.58,.54,.87,.81,.05,.04,.1,.09,.14,.14,2.45,2.52,3.95,5.97,3.95,9.76Z"/></g></svg>